<svg width="56" height="42" viewBox="0 0 56 42" fill="none" xmlns="http://www.w3.org/2000/svg">
<g filter="url(#filter0_dd_35_1058)">
<rect x="7.8761" y="4.03369" width="39.9568" height="25.7414" rx="4.6104" fill="white"/>
<rect x="7.78005" y="3.93764" width="40.1489" height="25.9335" rx="4.70645" stroke="#D6DCE5" stroke-width="0.1921"/>
<path d="M20.7998 13.5326C21.0664 13.1991 21.2473 12.7514 21.1996 12.2939C20.8093 12.3133 20.3331 12.5514 20.0574 12.8851C19.8099 13.1708 19.5908 13.6373 19.6479 14.0756C20.086 14.1136 20.5236 13.8566 20.7998 13.5326Z" fill="#000008"/>
<path d="M21.1946 14.1612C20.5584 14.1233 20.0175 14.5222 19.7138 14.5222C19.4098 14.5222 18.9446 14.1803 18.4414 14.1895C17.7865 14.1991 17.1788 14.5694 16.8465 15.1583C16.1629 16.3365 16.6661 18.0841 17.3308 19.0436C17.6536 19.5183 18.0427 20.041 18.5553 20.0223C19.0396 20.0033 19.2295 19.7087 19.8182 19.7087C20.4065 19.7087 20.5775 20.0223 21.0902 20.0128C21.6219 20.0033 21.9542 19.5378 22.277 19.0626C22.6474 18.5215 22.799 17.999 22.8085 17.9703C22.799 17.9608 21.7833 17.5711 21.7738 16.4028C21.7643 15.4245 22.5713 14.9592 22.6093 14.9303C22.1535 14.2563 21.4415 14.1803 21.1946 14.1612Z" fill="#000008"/>
<path d="M26.7337 12.8372C28.1164 12.8372 29.0792 13.7903 29.0792 15.178C29.0792 16.5705 28.0966 17.5286 26.6991 17.5286H25.1682V19.9631H24.0621V12.8372L26.7337 12.8372ZM25.1682 16.6002H26.4373C27.4003 16.6002 27.9484 16.0817 27.9484 15.1829C27.9484 14.2842 27.4003 13.7706 26.4423 13.7706H25.1682V16.6002Z" fill="#000008"/>
<path d="M29.3682 18.4866C29.3682 17.5779 30.0645 17.0199 31.2991 16.9508L32.7213 16.8669V16.4669C32.7213 15.8891 32.3311 15.5434 31.6794 15.5434C31.062 15.5434 30.6768 15.8397 30.583 16.3039H29.5757C29.6349 15.3656 30.4348 14.6742 31.7188 14.6742C32.9781 14.6742 33.7829 15.3409 33.7829 16.3829V19.9631H32.7607V19.1088H32.7361C32.4349 19.6866 31.7781 20.052 31.0966 20.052C30.0794 20.052 29.3682 19.4199 29.3682 18.4866ZM32.7213 18.0175V17.6076L31.4422 17.6866C30.8052 17.7311 30.4447 18.0126 30.4447 18.457C30.4447 18.9113 30.82 19.2076 31.3929 19.2076C32.1385 19.2076 32.7213 18.694 32.7213 18.0175Z" fill="#000008"/>
<path d="M34.748 21.8743V21.01C34.8269 21.0298 35.0046 21.0298 35.0936 21.0298C35.5874 21.0298 35.8541 20.8224 36.017 20.2891C36.017 20.2792 36.1109 19.973 36.1109 19.9681L34.2344 14.7681H35.3898L36.7036 18.9953H36.7232L38.0369 14.7681H39.1628L37.217 20.2347C36.7727 21.494 36.2591 21.8989 35.1826 21.8989C35.0936 21.8989 34.8269 21.889 34.748 21.8743Z" fill="#000008"/>
</g>
<defs>
<filter id="filter0_dd_35_1058" x="-4.00543e-05" y="-0.000203133" width="55.7091" height="41.4935" filterUnits="userSpaceOnUse" color-interpolation-filters="sRGB">
<feFlood flood-opacity="0" result="BackgroundImageFix"/>
<feColorMatrix in="SourceAlpha" type="matrix" values="0 0 0 0 0 0 0 0 0 0 0 0 0 0 0 0 0 0 127 0" result="hardAlpha"/>
<feOffset dy="0.3842"/>
<feGaussianBlur stdDeviation="1.921"/>
<feColorMatrix type="matrix" values="0 0 0 0 0.717647 0 0 0 0 0.717647 0 0 0 0 0.717647 0 0 0 0.08 0"/>
<feBlend mode="normal" in2="BackgroundImageFix" result="effect1_dropShadow_35_1058"/>
<feColorMatrix in="SourceAlpha" type="matrix" values="0 0 0 0 0 0 0 0 0 0 0 0 0 0 0 0 0 0 127 0" result="hardAlpha"/>
<feOffset dy="3.842"/>
<feGaussianBlur stdDeviation="3.842"/>
<feColorMatrix type="matrix" values="0 0 0 0 0.717647 0 0 0 0 0.717647 0 0 0 0 0.717647 0 0 0 0.08 0"/>
<feBlend mode="normal" in2="effect1_dropShadow_35_1058" result="effect2_dropShadow_35_1058"/>
<feBlend mode="normal" in="SourceGraphic" in2="effect2_dropShadow_35_1058" result="shape"/>
</filter>
</defs>
</svg>
