<svg width="14" height="14" viewBox="0 0 14 14" fill="none" xmlns="http://www.w3.org/2000/svg">
<path d="M5.71433 2.1607L10.0893 6.5357C10.1505 6.59666 10.1991 6.66911 10.2322 6.74888C10.2653 6.82865 10.2823 6.91417 10.2823 7.00054C10.2823 7.08691 10.2653 7.17243 10.2322 7.2522C10.1991 7.33197 10.1505 7.40442 10.0893 7.46538L5.71433 11.8404C5.59105 11.9637 5.42384 12.0329 5.24949 12.0329C5.07514 12.0329 4.90793 11.9637 4.78464 11.8404C4.66136 11.7171 4.5921 11.5499 4.5921 11.3755C4.5921 11.2012 4.66136 11.034 4.78464 10.9107L8.69535 6.99999L4.7841 3.08929C4.66081 2.96601 4.59155 2.7988 4.59155 2.62445C4.59155 2.4501 4.66081 2.28289 4.7841 2.1596C4.90738 2.03632 5.07459 1.96706 5.24894 1.96706C5.42329 1.96706 5.5905 2.03632 5.71379 2.1596L5.71433 2.1607Z" fill="black" fill-opacity="0.6"/>
</svg>
