<svg width="56" height="42" viewBox="0 0 56 42" fill="none" xmlns="http://www.w3.org/2000/svg">
<g filter="url(#filter0_dd_35_1060)">
<rect x="7.8761" y="4.03369" width="39.9568" height="25.7414" rx="4.6104" fill="white"/>
<rect x="7.78005" y="3.93764" width="40.1489" height="25.9335" rx="4.70645" stroke="#D6DCE5" stroke-width="0.1921"/>
<path d="M26.9859 19.9896H26.0872V12.9965H28.4697C29.0735 12.9965 29.5884 13.1978 30.0097 13.6004C30.4403 14.0029 30.6556 14.4944 30.6556 15.0748C30.6556 15.6693 30.4403 16.1607 30.0097 16.5586C29.5931 16.9565 29.0782 17.1531 28.4697 17.1531H26.9859V19.9896ZM26.9859 13.8578V16.2965H28.4884C28.8442 16.2965 29.1437 16.1748 29.3778 15.9361C29.6165 15.6973 29.7382 15.4071 29.7382 15.0795C29.7382 14.7565 29.6165 14.471 29.3778 14.2323C29.1437 13.9842 28.8488 13.8625 28.4884 13.8625H26.9859V13.8578Z" fill="#3C4043"/>
<path d="M33.0053 15.0467C33.6699 15.0467 34.1942 15.2246 34.578 15.5803C34.9618 15.9361 35.1537 16.4229 35.1537 17.0407V19.9896H34.2971V19.3249H34.2597C33.8899 19.8726 33.3938 20.1441 32.7759 20.1441C32.247 20.1441 31.807 19.9896 31.4512 19.676C31.0955 19.3624 30.9176 18.9739 30.9176 18.5058C30.9176 18.0096 31.1049 17.6165 31.4793 17.3263C31.8538 17.0314 32.3546 16.8863 32.9772 16.8863C33.5108 16.8863 33.9508 16.9846 34.2925 17.1811V16.9752C34.2925 16.6616 34.1708 16.3995 33.9227 16.1795C33.6746 15.9595 33.3844 15.8518 33.0521 15.8518C32.5512 15.8518 32.1534 16.0624 31.8631 16.4884L31.0721 15.9922C31.5074 15.3603 32.1534 15.0467 33.0053 15.0467ZM31.8444 18.5198C31.8444 18.7539 31.9427 18.9505 32.144 19.1049C32.3406 19.2594 32.5746 19.339 32.8414 19.339C33.2206 19.339 33.5576 19.1986 33.8525 18.9177C34.1474 18.6369 34.2971 18.3092 34.2971 17.9301C34.0163 17.7101 33.6278 17.5977 33.127 17.5977C32.7619 17.5977 32.4576 17.6867 32.2142 17.8599C31.9661 18.0424 31.8444 18.2624 31.8444 18.5198Z" fill="#3C4043"/>
<path d="M40.0405 15.2012L37.0448 22.0913H36.118L37.232 19.6807L35.2567 15.2012H36.235L37.658 18.6369H37.6767L39.0622 15.2012H40.0405Z" fill="#3C4043"/>
<path d="M23.4111 16.5867C23.4111 16.2937 23.3849 16.0133 23.3362 15.7437H19.5692V17.2883L21.7387 17.2888C21.6507 17.8028 21.3675 18.2409 20.9336 18.533V19.5351H22.225C22.9791 18.8372 23.4111 17.8056 23.4111 16.5867Z" fill="#4285F4"/>
<path d="M20.9341 18.533C20.5746 18.7755 20.1117 18.9173 19.5701 18.9173C18.524 18.9173 17.6365 18.2124 17.3187 17.2622H15.9865V18.2957C16.6465 19.6054 18.003 20.5041 19.5701 20.5041C20.6532 20.5041 21.5632 20.1479 22.2255 19.5347L20.9341 18.533Z" fill="#34A853"/>
<path d="M17.1932 16.4954C17.1932 16.2286 17.2376 15.9707 17.3186 15.7282V14.6947H15.9865C15.7136 15.2363 15.5601 15.8476 15.5601 16.4954C15.5601 17.1432 15.7141 17.7545 15.9865 18.2961L17.3186 17.2626C17.2376 17.0201 17.1932 16.7622 17.1932 16.4954Z" fill="#FABB05"/>
<path d="M19.5701 14.0731C20.1613 14.0731 20.6907 14.2767 21.1087 14.6746L22.2531 13.5311C21.558 12.8837 20.6518 12.4863 19.5701 12.4863C18.0035 12.4863 16.6465 13.385 15.9865 14.6947L17.3186 15.7282C17.6364 14.778 18.524 14.0731 19.5701 14.0731Z" fill="#E94235"/>
</g>
<defs>
<filter id="filter0_dd_35_1060" x="-4.00543e-05" y="-0.000203133" width="55.7091" height="41.4935" filterUnits="userSpaceOnUse" color-interpolation-filters="sRGB">
<feFlood flood-opacity="0" result="BackgroundImageFix"/>
<feColorMatrix in="SourceAlpha" type="matrix" values="0 0 0 0 0 0 0 0 0 0 0 0 0 0 0 0 0 0 127 0" result="hardAlpha"/>
<feOffset dy="0.3842"/>
<feGaussianBlur stdDeviation="1.921"/>
<feColorMatrix type="matrix" values="0 0 0 0 0.717647 0 0 0 0 0.717647 0 0 0 0 0.717647 0 0 0 0.08 0"/>
<feBlend mode="normal" in2="BackgroundImageFix" result="effect1_dropShadow_35_1060"/>
<feColorMatrix in="SourceAlpha" type="matrix" values="0 0 0 0 0 0 0 0 0 0 0 0 0 0 0 0 0 0 127 0" result="hardAlpha"/>
<feOffset dy="3.842"/>
<feGaussianBlur stdDeviation="3.842"/>
<feColorMatrix type="matrix" values="0 0 0 0 0.717647 0 0 0 0 0.717647 0 0 0 0 0.717647 0 0 0 0.08 0"/>
<feBlend mode="normal" in2="effect1_dropShadow_35_1060" result="effect2_dropShadow_35_1060"/>
<feBlend mode="normal" in="SourceGraphic" in2="effect2_dropShadow_35_1060" result="shape"/>
</filter>
</defs>
</svg>
