<svg width="56" height="42" viewBox="0 0 56 42" fill="none" xmlns="http://www.w3.org/2000/svg">
<g filter="url(#filter0_dd_35_1054)">
<rect x="7.8761" y="4.03369" width="39.9568" height="25.7414" rx="4.6104" fill="white"/>
<rect x="7.78005" y="3.93764" width="40.1489" height="25.9335" rx="4.70645" stroke="#D6DCE5" stroke-width="0.1921"/>
<path d="M30.7247 11.6182H24.8417V22.1902H30.7247V11.6182Z" fill="#FF5F00"/>
<path d="M25.2152 16.9042C25.2143 15.886 25.445 14.881 25.8899 13.9652C26.3348 13.0493 26.9823 12.2468 27.7832 11.6182C26.7914 10.8385 25.6002 10.3537 24.3458 10.2191C23.0914 10.0844 21.8245 10.3054 20.6898 10.8568C19.5551 11.4082 18.5984 12.2677 17.929 13.3371C17.2597 14.4065 16.9048 15.6426 16.9048 16.9042C16.9048 18.1657 17.2597 19.4019 17.929 20.4713C18.5984 21.5406 19.5551 22.4002 20.6898 22.9515C21.8245 23.5029 23.0914 23.7239 24.3458 23.5893C25.6002 23.4546 26.7914 22.9698 27.7832 22.1902C26.9823 21.5616 26.3349 20.759 25.8899 19.8432C25.445 18.9274 25.2143 17.9223 25.2152 16.9042Z" fill="#EB001B"/>
<path d="M38.6613 16.9042C38.6614 18.1657 38.3065 19.4018 37.6372 20.4712C36.9679 21.5406 36.0112 22.4001 34.8765 22.9515C33.7419 23.5029 32.4749 23.7239 31.2206 23.5893C29.9662 23.4546 28.775 22.9698 27.7832 22.1902C28.5835 21.5609 29.2304 20.7582 29.6752 19.8425C30.12 18.9269 30.3512 17.9222 30.3512 16.9042C30.3512 15.8862 30.12 14.8814 29.6752 13.9658C29.2304 13.0501 28.5835 12.2474 27.7832 11.6182C28.775 10.8385 29.9662 10.3537 31.2206 10.2191C32.4749 10.0844 33.7419 10.3054 34.8765 10.8568C36.0112 11.4082 36.9679 12.2677 37.6372 13.3371C38.3065 14.4065 38.6614 15.6426 38.6613 16.9042Z" fill="#F79E1B"/>
<path d="M38.0199 21.0704V20.854H38.1071V20.8099H37.8849V20.854H37.9722V21.0704H38.0199ZM38.4514 21.0704V20.8095H38.3832L38.3049 20.989L38.2265 20.8095H38.1583V21.0704H38.2064V20.8736L38.2799 21.0433H38.3298L38.4033 20.8732V21.0704H38.4514Z" fill="#F79E1B"/>
</g>
<defs>
<filter id="filter0_dd_35_1054" x="-4.00543e-05" y="-0.000203133" width="55.7091" height="41.4935" filterUnits="userSpaceOnUse" color-interpolation-filters="sRGB">
<feFlood flood-opacity="0" result="BackgroundImageFix"/>
<feColorMatrix in="SourceAlpha" type="matrix" values="0 0 0 0 0 0 0 0 0 0 0 0 0 0 0 0 0 0 127 0" result="hardAlpha"/>
<feOffset dy="0.3842"/>
<feGaussianBlur stdDeviation="1.921"/>
<feColorMatrix type="matrix" values="0 0 0 0 0.717647 0 0 0 0 0.717647 0 0 0 0 0.717647 0 0 0 0.08 0"/>
<feBlend mode="normal" in2="BackgroundImageFix" result="effect1_dropShadow_35_1054"/>
<feColorMatrix in="SourceAlpha" type="matrix" values="0 0 0 0 0 0 0 0 0 0 0 0 0 0 0 0 0 0 127 0" result="hardAlpha"/>
<feOffset dy="3.842"/>
<feGaussianBlur stdDeviation="3.842"/>
<feColorMatrix type="matrix" values="0 0 0 0 0.717647 0 0 0 0 0.717647 0 0 0 0 0.717647 0 0 0 0.08 0"/>
<feBlend mode="normal" in2="effect1_dropShadow_35_1054" result="effect2_dropShadow_35_1054"/>
<feBlend mode="normal" in="SourceGraphic" in2="effect2_dropShadow_35_1054" result="shape"/>
</filter>
</defs>
</svg>
