<svg width="56" height="42" viewBox="0 0 56 42" fill="none" xmlns="http://www.w3.org/2000/svg">
<g filter="url(#filter0_dd_35_1056)">
<rect x="7.8761" y="4.03369" width="39.9568" height="25.7414" rx="4.6104" fill="white"/>
<rect x="7.78005" y="3.93764" width="40.1489" height="25.9335" rx="4.70645" stroke="#D6DCE5" stroke-width="0.1921"/>
<path fill-rule="evenodd" clip-rule="evenodd" d="M16.6168 13.159H14.3132C14.1555 13.159 14.0215 13.2736 13.9969 13.4291L13.0652 19.3357C13.0466 19.4523 13.1369 19.5574 13.2551 19.5574H14.3549C14.5126 19.5574 14.6467 19.4428 14.6712 19.287L14.9225 17.6939C14.9468 17.5379 15.0812 17.4235 15.2385 17.4235H15.9678C17.4853 17.4235 18.361 16.6892 18.5898 15.2342C18.6929 14.5977 18.5942 14.0975 18.296 13.7471C17.9686 13.3626 17.3878 13.159 16.6168 13.159ZM16.8826 15.3163C16.7567 16.1429 16.1251 16.1429 15.5144 16.1429H15.1667L15.4106 14.5992C15.4251 14.506 15.5059 14.4373 15.6003 14.4373H15.7596C16.1756 14.4373 16.5681 14.4373 16.7709 14.6743C16.8917 14.8159 16.9288 15.026 16.8826 15.3163ZM23.5031 15.2898H22.3999C22.3059 15.2898 22.2247 15.3586 22.2102 15.4519L22.1614 15.7604L22.0842 15.6486C21.8454 15.302 21.3129 15.1862 20.7814 15.1862C19.5622 15.1862 18.5211 16.1094 18.3183 17.4044C18.2129 18.0503 18.3627 18.668 18.7292 19.0988C19.0654 19.4949 19.5465 19.6599 20.1187 19.6599C21.1009 19.6599 21.6457 19.0284 21.6457 19.0284L21.5965 19.335C21.5779 19.4522 21.6682 19.5572 21.7857 19.5572H22.7795C22.9375 19.5572 23.0708 19.4427 23.0957 19.2868L23.692 15.5115C23.7109 15.3954 23.6209 15.2898 23.5031 15.2898ZM21.9653 17.4367C21.8588 18.0669 21.3586 18.4899 20.7207 18.4899C20.4004 18.4899 20.1443 18.3872 19.98 18.1925C19.8169 17.9992 19.7549 17.724 19.8068 17.4175C19.9063 16.7927 20.4149 16.356 21.0431 16.356C21.3563 16.356 21.611 16.4599 21.7787 16.6563C21.9467 16.8547 22.0135 17.1315 21.9653 17.4367ZM28.2698 15.2897H29.3784C29.5336 15.2897 29.6242 15.4638 29.536 15.5911L25.8489 20.9126C25.7892 20.9988 25.6909 21.0501 25.5858 21.0501H24.4786C24.3227 21.0501 24.2317 20.8746 24.3219 20.7469L25.47 19.1266L24.249 15.5436C24.2067 15.4191 24.2987 15.2897 24.4312 15.2897H25.5205C25.662 15.2897 25.7869 15.3826 25.8277 15.518L26.4757 17.682L28.0048 15.4301C28.0646 15.3422 28.1641 15.2897 28.2698 15.2897Z" fill="#253B80"/>
<path fill-rule="evenodd" clip-rule="evenodd" d="M40.2896 19.3352L41.235 13.3206C41.2495 13.2272 41.3304 13.1585 41.4244 13.1582H42.4888C42.6063 13.1582 42.6966 13.2636 42.678 13.3802L41.7457 19.2864C41.7214 19.4423 41.5873 19.5569 41.4294 19.5569H40.4788C40.3613 19.5569 40.2711 19.4518 40.2896 19.3352ZM33.0491 13.1585H30.745C30.5877 13.1585 30.4536 13.2731 30.429 13.4286L29.4973 19.3352C29.4788 19.4518 29.569 19.5569 29.6867 19.5569H30.8689C30.9788 19.5569 31.0728 19.4767 31.09 19.3676L31.3543 17.6934C31.3786 17.5373 31.513 17.4229 31.6703 17.4229H32.3992C33.917 17.4229 34.7926 16.6887 35.0216 15.2337C35.1249 14.5971 35.0256 14.097 34.7276 13.7466C34.4004 13.3621 33.8201 13.1585 33.0491 13.1585ZM33.3148 15.3158C33.1892 16.1424 32.5576 16.1424 31.9465 16.1424H31.5992L31.8435 14.5987C31.858 14.5055 31.9381 14.4367 32.0327 14.4367H32.192C32.6078 14.4367 33.0006 14.4367 33.2032 14.6738C33.3242 14.8153 33.361 15.0254 33.3148 15.3158ZM39.9347 15.2893H38.8323C38.7375 15.2893 38.6571 15.3581 38.6429 15.4514L38.5941 15.7599L38.5166 15.6481C38.2778 15.3015 37.7456 15.1857 37.2141 15.1857C35.9949 15.1857 34.9541 16.1089 34.7513 17.4039C34.6462 18.0498 34.7954 18.6675 35.1619 19.0983C35.4987 19.4944 35.9792 19.6594 36.5514 19.6594C37.5336 19.6594 38.0783 19.0279 38.0783 19.0279L38.0292 19.3344C38.0106 19.4517 38.1009 19.5567 38.2192 19.5567H39.2125C39.3698 19.5567 39.5038 19.4421 39.5284 19.2863L40.125 15.511C40.1432 15.3948 40.053 15.2893 39.9347 15.2893ZM38.3971 17.4362C38.2912 18.0663 37.7904 18.4894 37.1523 18.4894C36.8326 18.4894 36.576 18.3866 36.4116 18.192C36.2485 17.9987 36.1873 17.7234 36.2386 17.417C36.3385 16.7922 36.8465 16.3554 37.4747 16.3554C37.788 16.3554 38.0426 16.4594 38.2105 16.6558C38.3791 16.8542 38.4458 17.131 38.3971 17.4362Z" fill="#179BD7"/>
</g>
<defs>
<filter id="filter0_dd_35_1056" x="-4.00543e-05" y="-0.000203133" width="55.7091" height="41.4935" filterUnits="userSpaceOnUse" color-interpolation-filters="sRGB">
<feFlood flood-opacity="0" result="BackgroundImageFix"/>
<feColorMatrix in="SourceAlpha" type="matrix" values="0 0 0 0 0 0 0 0 0 0 0 0 0 0 0 0 0 0 127 0" result="hardAlpha"/>
<feOffset dy="0.3842"/>
<feGaussianBlur stdDeviation="1.921"/>
<feColorMatrix type="matrix" values="0 0 0 0 0.717647 0 0 0 0 0.717647 0 0 0 0 0.717647 0 0 0 0.08 0"/>
<feBlend mode="normal" in2="BackgroundImageFix" result="effect1_dropShadow_35_1056"/>
<feColorMatrix in="SourceAlpha" type="matrix" values="0 0 0 0 0 0 0 0 0 0 0 0 0 0 0 0 0 0 127 0" result="hardAlpha"/>
<feOffset dy="3.842"/>
<feGaussianBlur stdDeviation="3.842"/>
<feColorMatrix type="matrix" values="0 0 0 0 0.717647 0 0 0 0 0.717647 0 0 0 0 0.717647 0 0 0 0.08 0"/>
<feBlend mode="normal" in2="effect1_dropShadow_35_1056" result="effect2_dropShadow_35_1056"/>
<feBlend mode="normal" in="SourceGraphic" in2="effect2_dropShadow_35_1056" result="shape"/>
</filter>
</defs>
</svg>
